<?xml version="1.0" encoding="utf-8"?>
<!-- Generator: Adobe Illustrator 12.0.0, SVG Export Plug-In . SVG Version: 6.00 Build 51448)  -->
<!DOCTYPE svg PUBLIC "-//W3C//DTD SVG 1.0//EN" "http://www.w3.org/TR/2001/REC-SVG-20010904/DTD/svg10.dtd" [
	<!ENTITY ns_svg "http://www.w3.org/2000/svg">
	<!ENTITY ns_xlink "http://www.w3.org/1999/xlink">
]>
<svg  version="1.0" id="Layer_1" xmlns="&ns_svg;" xmlns:xlink="&ns_xlink;" width="500" height="200"
	 viewBox="145.5 205.5 500 200" overflow="visible" enable-background="new 145.5 205.5 500 200" xml:space="preserve">
<g>
	<g>
		<path stroke="#595857" stroke-width="4" d="M348.15,259.254c0,0-1.476,4.952,0.21,7.375s24.86,1.791,24.86,1.791l-11.27-10.22
			L348.15,259.254z"/>
		<path stroke="#595857" stroke-width="4" d="M165.938,236.398c0,0,119.181,32.087,233.778,32.087
			c114.599,0,214.68-51.188,218.501-53.479c3.818-2.292,12.986,38.963,0.765,48.131c-12.225,9.168-80.983,48.896-216.208,48.896
			c-135.227,0-233.016-21.393-239.893-29.032C156.005,275.361,156.005,244.802,165.938,236.398z"/>
		<path stroke="#595857" stroke-width="4" stroke-linejoin="round" d="M408.12,339.536c0,0-22.156-6.111-28.268-21.393
			c-6.111-15.278,58.827-29.795,58.827-29.795l-6.112,31.324L408.12,339.536L408.12,339.536z"/>
		<path stroke="#595857" stroke-width="4" d="M351.585,315.852c0,0,30.561,21.393,35.144,19.101
			c4.584-2.292,58.827-36.671,58.827-36.671l-45.84-33.616l-50.423,38.2L351.585,315.852z"/>
		<path stroke="#595857" stroke-width="4" d="M178.924,365.513c0,0,125.293-76.398,200.929-106.959
			c75.635-30.56,30.561,29.031,30.561,29.031s-78.69,38.199-110.779,57.299c-32.088,19.101-81.745,50.424-87.857,51.188
			C205.664,396.835,178.924,365.513,178.924,365.513z"/>
		<path stroke="#595857" stroke-width="4" d="M412.073,240.503c0,0-5.29-1.851-14.146,8.46c-8.856,10.313,15.07,8.197,15.07,8.197
			L412.073,240.503z"/>
		<path stroke="#595857" stroke-width="4" stroke-linecap="round" stroke-linejoin="round" d="M388.256,241.746
			c0,0,94.734,49.659,127.587,60.354c32.851,10.696,113.832,46.604,116.889,55.771s-27.503,30.559-27.503,30.559
			s-23.685-21.391-54.243-34.379c-30.56-12.986-83.273-34.379-112.306-48.131c-29.031-13.751-89.388-47.367-89.388-47.367
			L388.256,241.746L388.256,241.746z"/>
		<path stroke="#595857" stroke-width="4" stroke-linejoin="round" d="M411.94,240.982c0,0-2.292,92.442-4.584,97.026
			c-2.293,4.584,42.783-12.988,43.546-18.336c0.765-5.349,6.877-50.423,2.293-55.007S416.523,238.69,411.94,240.982z"/>
	</g>
</g>
</svg>
