<?xml version="1.0" encoding="UTF-8"?>
<!-- Generated by Pixelmator Pro 3.5.3 -->
<svg width="478" height="184" viewBox="0 0 478 184" xmlns="http://www.w3.org/2000/svg">
    <g id="Group">
        <path id="Path" fill="#0a9d7e" stroke="#1a1a1a" stroke-width="4" d="M 192.044006 45.292007 C 192.044006 45.292007 190.569 50.244003 192.253998 52.667007 C 193.940002 55.089996 217.113998 54.458008 217.113998 54.458008 L 205.845001 44.238007 L 192.044006 45.292007 Z"/>
        <path id="path1" fill="#0a9d7e" stroke="#1a1a1a" stroke-width="4" d="M 9.831 22.436005 C 9.831 22.436005 129.011993 54.522995 243.610001 54.522995 C 358.208008 54.522995 458.289001 3.335999 462.109985 1.044006 C 465.928986 -1.248001 475.096985 40.007004 462.875 49.175003 C 450.649994 58.343002 381.891998 98.070999 246.667007 98.070999 C 111.441002 98.070999 13.652 76.679001 6.775 69.039001 C -0.101 61.399002 -0.101 30.839996 9.831 22.436005 Z"/>
        <path id="path2" fill="#0a9d7e" stroke="#1a1a1a" stroke-width="4" d="M 252.014008 125.573997 C 252.014008 125.573997 229.858002 119.461998 223.746002 104.181999 C 217.634995 88.903 282.572998 74.387001 282.572998 74.387001 L 276.460999 105.710999 L 252.014008 125.573997 Z"/>
        <path id="path3" fill="#0a9d7e" stroke="#1a1a1a" stroke-width="4" d="M 195.479004 101.889999 C 195.479004 101.889999 226.039001 123.281998 230.621994 120.989998 C 235.205994 118.697998 289.449005 84.319 289.449005 84.319 L 243.610001 50.703003 L 193.186996 88.903 L 195.479004 101.889999 Z"/>
        <path id="path4" fill="#0a9d7e" stroke="#1a1a1a" stroke-width="4" d="M 22.818001 151.549988 C 22.818001 151.549988 148.110992 75.152 223.746002 44.591995 C 299.381012 14.031998 254.306 73.623001 254.306 73.623001 C 254.306 73.623001 175.615997 111.821999 143.528 130.921997 C 111.440002 150.022003 61.782001 181.346008 55.669998 182.110001 C 49.557999 182.873001 22.818001 151.549988 22.818001 151.549988 Z"/>
        <path id="path5" fill="#0a9d7e" stroke="#1a1a1a" stroke-width="4" d="M 255.966995 26.541 C 255.966995 26.541 250.677002 24.690002 241.820999 35.001007 C 232.964005 45.313004 256.890991 43.197998 256.890991 43.197998 L 255.966995 26.541 Z"/>
        <path id="path6" fill="#0a9d7e" stroke="#1a1a1a" stroke-width="4" d="M 232.149994 27.783997 C 232.149994 27.783997 326.884003 77.443001 359.735992 88.139 C 392.587006 98.834999 473.567993 134.742004 476.625 143.910004 C 479.682007 153.078003 449.122009 174.469009 449.122009 174.469009 C 449.122009 174.469009 425.437012 153.078003 394.878998 140.089996 C 364.319 127.102997 311.605011 105.710999 282.572998 91.959 C 253.542007 78.208 193.186005 44.591995 193.186005 44.591995 L 232.149994 27.783997 Z"/>
        <path id="path7" fill="#0a9d7e" stroke="#1a1a1a" stroke-width="4" d="M 255.834 27.020004 C 255.834 27.020004 253.542007 119.461998 251.25 124.045998 C 248.957001 128.630005 294.03299 111.058998 294.79599 105.710999 C 295.561005 100.362 301.673004 55.287994 297.088989 50.703995 C 292.505005 46.119995 260.416992 24.727997 255.834 27.020004 Z"/>
    </g>
</svg>
